<?xml version="1.0" standalone="no"?>
<!DOCTYPE svg PUBLIC "-//W3C//DTD SVG 20010904//EN" "http://www.w3.org/TR/2001/REC-SVG-20010904/DTD/svg10.dtd">
<svg version="1.0" xmlns="http://www.w3.org/2000/svg"
    width="563.000000pt" height="430.000000pt" viewBox="0 0 563.000000 430.000000"
    preserveAspectRatio="xMidYMid meet">

    <g transform="translate(0.000000,430.000000) scale(0.100000,-0.100000)"
        fill="#42b883" stroke="none">
        <path
            d="M1430 4278 c-272 -160 -451 -354 -639 -695 -84 -151 -147 -303 -241
-579 -45 -130 -87 -249 -95 -263 l-14 -26 -14 35 c-32 77 -42 155 -41 345 0
207 16 343 59 494 13 48 27 95 31 104 14 38 -19 13 -61 -45 -67 -91 -132 -228
-162 -343 -24 -91 -26 -117 -27 -295 0 -148 4 -217 17 -285 27 -138 89 -370
155 -580 33 -104 69 -224 81 -265 57 -206 67 -409 20 -418 -22 -4 -127 95
-195 184 -37 48 -105 166 -182 318 l-123 241 6 -83 c22 -320 161 -612 396
-836 174 -165 335 -264 954 -583 433 -224 508 -272 602 -385 52 -62 88 -128
118 -218 20 -59 25 -66 61 -79 46 -17 330 -20 379 -4 27 8 30 14 33 59 5 71
-15 157 -59 252 -45 98 -94 152 -318 350 -231 206 -300 298 -337 458 -26 113
-20 199 24 377 27 108 35 157 27 157 -18 0 -86 -52 -122 -94 -70 -79 -104
-187 -127 -399 -8 -76 -20 -145 -27 -153 -15 -19 -148 -19 -210 0 -169 52
-368 205 -440 340 -65 120 -45 199 113 452 41 65 120 191 175 279 178 284 291
500 344 653 25 71 9 58 -72 -61 -159 -234 -260 -347 -309 -347 -34 0 -45 55
-44 225 1 315 77 610 213 830 28 44 48 82 45 84 -9 9 -122 -89 -172 -149 -29
-36 -77 -114 -107 -175 -79 -160 -111 -282 -204 -776 -28 -146 -60 -297 -72
-335 -24 -78 -72 -175 -100 -200 -18 -16 -20 -15 -43 38 -53 120 -59 152 -63
368 -4 156 -1 234 12 325 57 412 179 780 373 1120 81 142 169 269 334 483 78
101 95 124 86 121 -2 0 -19 -10 -38 -21z" />
        <path
            d="M4199 4253 c263 -317 410 -549 540 -858 161 -381 229 -664 238 -1002
8 -269 -21 -468 -77 -535 l-20 -23 -24 26 c-27 31 -80 154 -107 249 -11 36
-40 189 -64 340 -62 373 -96 506 -175 676 -68 147 -176 280 -272 334 -45 25
-45 25 18 -65 127 -183 208 -474 221 -791 7 -160 0 -223 -27 -256 l-18 -23
-37 20 c-42 22 -122 120 -248 306 -78 113 -117 162 -117 145 0 -3 14 -40 31
-83 67 -172 201 -413 415 -750 251 -393 275 -461 214 -588 -54 -112 -242 -266
-408 -336 -100 -42 -205 -51 -241 -22 -21 18 -25 31 -33 134 -4 63 -15 144
-23 181 -29 137 -112 271 -195 317 l-43 24 5 -24 c3 -13 18 -69 33 -124 21
-76 28 -131 32 -230 10 -237 -14 -285 -256 -520 -278 -269 -345 -340 -380
-398 -51 -87 -82 -181 -88 -273 l-6 -82 59 -9 c94 -13 313 -8 357 8 38 13 40
17 68 107 48 149 135 247 315 353 44 26 203 111 354 189 495 256 742 397 875
498 294 224 489 582 510 939 5 73 3 84 -6 63 -7 -14 -38 -80 -70 -147 -114
-243 -254 -449 -363 -535 -36 -28 -52 -36 -60 -28 -7 7 -10 56 -9 133 1 144
20 222 138 587 142 436 172 594 162 850 -10 252 -71 448 -192 615 -42 58 -62
70 -51 33 67 -237 81 -335 81 -573 0 -172 -4 -222 -19 -275 -37 -133 -35 -135
-110 76 -165 459 -274 703 -398 889 -76 114 -229 282 -322 354 -56 43 -215
141 -229 141 -5 0 5 -17 22 -37z" />
    </g>
</svg>